HIERARCHY
ROOT joint_Root
{
  OFFSET 0 0 0
  CHANNELS 6 Xposition Yposition Zposition Zrotation Xrotation Yrotation
  JOINT Hips
  {
    OFFSET 0 93.9241 -3
    CHANNELS 6 Xposition Yposition Zposition Zrotation Xrotation Yrotation
    JOINT Spine
    {
      OFFSET 15.7357 0 0
      CHANNELS 6 Xposition Yposition Zposition Zrotation Xrotation Yrotation
      JOINT Chest
      {
        OFFSET 8.98455 -0.406207 0
        CHANNELS 6 Xposition Yposition Zposition Zrotation Xrotation Yrotation
        JOINT Neck
        {
          OFFSET 16.3773 0 0
          CHANNELS 6 Xposition Yposition Zposition Zrotation Xrotation Yrotation
          JOINT Head
          {
            OFFSET 6.45672 0 0
            CHANNELS 6 Xposition Yposition Zposition Zrotation Xrotation Yrotation
            End Site
            {
              OFFSET 0 0 0
            }
          }
        }
        JOINT Shoulder_L
        {
          OFFSET 12.9942 -0.242716 4.98039
          CHANNELS 6 Xposition Yposition Zposition Zrotation Xrotation Yrotation
          JOINT UpperArm_L
          {
            OFFSET 5.34809 0 0
            CHANNELS 6 Xposition Yposition Zposition Zrotation Xrotation Yrotation
            JOINT LowerArm_L
            {
              OFFSET 24.3286 1.87007e-05 0
              CHANNELS 6 Xposition Yposition Zposition Zrotation Xrotation Yrotation
              JOINT Hand_L
              {
                OFFSET 22.2916 0 0
                CHANNELS 6 Xposition Yposition Zposition Zrotation Xrotation Yrotation
                End Site
                {
                  OFFSET 0 0 0
                }
              }
            }
          }
        }
        JOINT Shoulder_R
        {
          OFFSET 12.9945 -0.242716 -4.98039
          CHANNELS 6 Xposition Yposition Zposition Zrotation Xrotation Yrotation
          JOINT UpperArm_R
          {
            OFFSET -5.34813 0 0
            CHANNELS 6 Xposition Yposition Zposition Zrotation Xrotation Yrotation
            JOINT LowerArm_R
            {
              OFFSET -24.3289 0.000322201 0
              CHANNELS 6 Xposition Yposition Zposition Zrotation Xrotation Yrotation
              JOINT Hand_R
              {
                OFFSET -22.2915 -0.000108084 0
                CHANNELS 6 Xposition Yposition Zposition Zrotation Xrotation Yrotation
                End Site
                {
                  OFFSET 0 0 0
                }
              }
            }
          }
        }
      }
    }
    JOINT UpperLeg_L
    {
      OFFSET -2.19248 -6.46944 0
      CHANNELS 6 Xposition Yposition Zposition Zrotation Xrotation Yrotation
      JOINT LowerLeg_L
      {
        OFFSET 39.0811 0 -1.23785e-05
        CHANNELS 6 Xposition Yposition Zposition Zrotation Xrotation Yrotation
        JOINT Foot_L
        {
          OFFSET 40.9854 0 -1.26872e-05
          CHANNELS 6 Xposition Yposition Zposition Zrotation Xrotation Yrotation
          JOINT Toes_L
          {
            OFFSET 11.7543 0 0
            CHANNELS 6 Xposition Yposition Zposition Zrotation Xrotation Yrotation
            End Site
            {
              OFFSET 0 0 0
            }
          }
        }
      }
    }
    JOINT UpperLeg_R
    {
      OFFSET -2.19251 6.46944 0
      CHANNELS 6 Xposition Yposition Zposition Zrotation Xrotation Yrotation
      JOINT LowerLeg_R
      {
        OFFSET -39.0811 -0.00228153 -0.0401928
        CHANNELS 6 Xposition Yposition Zposition Zrotation Xrotation Yrotation
        JOINT Foot_R
        {
          OFFSET -40.9854 0 0
          CHANNELS 6 Xposition Yposition Zposition Zrotation Xrotation Yrotation
          JOINT Toes_R
          {
            OFFSET -11.7543 0 0
            CHANNELS 6 Xposition Yposition Zposition Zrotation Xrotation Yrotation
            End Site
            {
              OFFSET 0 0 0
            }
          }
        }
      }
    }
  }
}
MOTION
Frames:	8
Frame Time:	0.0333333
0 0 0 0 0 -0 -2.19864 89.5624 -395.346 87.1174 -0.519112 -5.44945 15.7357 5.1072e-06 -5.51765e-07 117.489 85.2534 -117.067 8.98455 -0.406207 -4.3199e-07 0.642541 4.35415 0.818922 16.3773 -1.3905e-06 -6.99897e-07 -14.7655 -1.7337 -2.53889 6.45672 -1.25837e-06 -1.02172e-07 -13.7722 -7.64663 -6.25839 12.9942 -0.242716 4.98039 -89.052 -2.99002 -87.3977 5.34809 -7.22636e-06 -6.2814e-07 -72.3917 0.615222 32.6025 24.3286 1.87007e-05 4.90207e-06 23.5739 -4.11402 -99.3363 22.2916 -9.88446e-07 4.63217e-06 25.3424 5.14044 4.16813 12.9945 -0.242716 -4.98039 90.1368 -1.07851 -97.8052 -5.34813 -1.25947e-06 -3.79883e-06 -71.9804 8.8763 1.12539 -24.3289 0.000322201 -8.65921e-06 16.0619 -3.00987 -100.335 -22.2915 -0.000108084 -4.47941e-06 41.1501 5.62765 -13.1409 -2.19248 -6.46944 -1.22533e-07 -179.279 -0.456112 -25.2054 39.0811 -6.73843e-06 -1.23785e-05 -0.351592 0.106587 71.7952 40.9854 -6.48686e-06 -1.26872e-05 5.55182 -4.08772 -37.3974 11.7543 -2.30145e-07 3.05095e-06 0.509425 -0.626728 -22.4637 -2.19251 6.46944 -1.45247e-06 -172.525 -4.94332 167.014 -39.0811 -0.00228153 -0.0401928 0.0708545 -0.069387 31.7317 -40.9854 7.72618e-06 5.99936e-06 3.33639 -10.3571 -74.096 -11.7543 -5.6619e-06 -5.58687e-06 0.170841 -0.181085 -17.9598 
0 0 0 0 0 -0 -1.50074 91.7155 -390.743 89.6343 -0.52321 -6.99594 15.7357 5.1072e-06 -5.51765e-07 130.003 85.3055 -130.582 8.98455 -0.406207 -4.3199e-07 -0.541303 6.07625 -1.12883 16.3773 -1.3905e-06 -6.99897e-07 -14.2692 -2.47931 -3.52104 6.45672 -1.25837e-06 -1.02172e-07 -12.8226 -10.5776 -6.71623 12.9942 -0.242716 4.98039 -88.3789 -4.91675 -86.7281 5.34809 -7.22636e-06 -6.2814e-07 -67.4373 -4.68779 36.2646 24.3286 1.87007e-05 4.90208e-06 22.9866 -3.56396 -98.3363 22.2916 -9.88446e-07 4.63217e-06 28.881 5.08897 5.31581 12.9945 -0.242716 -4.98039 90.3719 -2.93613 -97.7766 -5.34813 -1.25947e-06 -3.79883e-06 -72.1328 4.92303 -3.91595 -24.3289 0.000322201 -8.65921e-06 13.2131 -4.15393 -107.164 -22.2915 -0.000108084 -4.47941e-06 40.2724 5.60358 -11.5582 -2.19248 -6.46944 -1.22534e-07 177.136 1.87028 -29.2354 39.0811 -6.73843e-06 -1.23785e-05 -0.33278 0.140702 65.8204 40.9854 -6.48686e-06 -1.26872e-05 6.24183 -9.18419 -41.4661 11.7543 -2.30145e-07 3.05095e-06 0.408133 -0.491224 -21.2316 -2.19251 6.46944 -1.45247e-06 -175.589 -5.7257 172.078 -39.0811 -0.00228153 -0.0401928 0.0725976 -0.123397 23.226 -40.9854 7.72618e-06 5.99936e-06 3.33763 -10.8701 -65.7203 -11.7543 -5.6619e-06 -5.58687e-06 -0.398047 -1.5407 -22.6587 
0 0 0 0 0 -0 -0.834566 93.4047 -386.374 91.5623 -0.862377 -9.04917 15.7357 5.1072e-06 -5.51765e-07 142.036 85.3154 -143.425 8.98455 -0.406207 -4.3199e-07 -1.91533 7.50206 -2.65432 16.3773 -1.3905e-06 -6.99897e-07 -13.6171 -3.12622 -4.01136 6.45672 -1.25837e-06 -1.02172e-07 -11.7376 -12.5328 -6.7991 12.9942 -0.242716 4.98039 -87.7624 -6.50363 -85.9682 5.34809 -7.22636e-06 -6.2814e-07 -62.3201 -9.15059 39.0456 24.3286 1.87007e-05 4.90208e-06 21.0587 -3.10597 -98.0101 22.2916 -9.88446e-07 4.63217e-06 33.5825 4.99372 7.4296 12.9945 -0.242716 -4.98039 90.4871 -4.07146 -98.1718 -5.34813 -1.25947e-06 -3.79883e-06 -71.8592 1.14788 -8.34358 -24.3289 0.000322201 -8.65921e-06 8.15075 -3.53483 -113.31 -22.2915 -0.000108084 -4.47941e-06 41.0046 5.58061 -10.2475 -2.19248 -6.46944 -1.22533e-07 174.742 3.04916 -32.2695 39.0811 -6.73843e-06 -1.23785e-05 -0.276508 0.173788 56.5413 40.9854 -6.48686e-06 -1.26872e-05 8.24654 -11.753 -44.5364 11.7543 -2.30145e-07 3.05095e-06 0.453463 -0.551108 -21.7786 -2.19251 6.46944 -1.45247e-06 -178.293 -3.14688 175.479 -39.0811 -0.00228153 -0.0401928 0.0190725 -0.0282811 15.7142 -40.9854 7.72618e-06 5.99936e-06 4.75481 -8.13938 -55.1461 -11.7543 -5.6619e-06 -5.58687e-06 -0.761224 -2.91537 -32.2908 
0 0 0 0 0 -0 -0.426346 94.4082 -382.13 91.9387 -1.50585 -10.5137 15.7357 5.1072e-06 -5.51765e-07 150.78 85.0425 -152.419 8.98455 -0.406207 -4.3199e-07 -2.81202 8.80116 -3.06707 16.3773 -1.3905e-06 -6.99897e-07 -13.0435 -3.25431 -4.40616 6.45672 -1.25837e-06 -1.02172e-07 -10.6166 -14.1029 -6.50717 12.9942 -0.242716 4.98039 -87.2915 -7.67998 -85.5067 5.34809 -7.22636e-06 -6.2814e-07 -57.6904 -13.116 41.4819 24.3286 1.87007e-05 4.90208e-06 21.428 -3.26011 -98.2448 22.2916 -9.88446e-07 4.63217e-06 36.7685 4.92017 8.96991 12.9945 -0.242716 -4.98039 90.5335 -4.86226 -98.7301 -5.34813 -1.25947e-06 -3.79883e-06 -72.108 -2.59621 -12.1133 -24.3289 0.000322201 -8.65921e-06 7.27046 -3.8934 -118.015 -22.2915 -0.000108084 -4.47941e-06 40.261 5.5535 -8.86705 -2.19248 -6.46944 -1.22533e-07 174.327 2.17455 -33.2656 39.0811 -6.73843e-06 -1.23785e-05 -0.169005 0.162874 44.324 40.9854 -6.48686e-06 -1.26872e-05 8.09247 -11.1854 -47.6097 11.7543 -2.30145e-07 3.05095e-06 0.44805 -0.543901 -21.713 -2.19251 6.46944 -1.45247e-06 -179.211 1.57124 178.163 -39.0811 -0.00228153 -0.0401928 0.00497349 0.0103574 10.9202 -40.9854 7.72618e-06 5.99936e-06 7.62473 -3.10509 -47.6965 -11.7543 -5.6619e-06 -5.58687e-06 -0.534986 -3.76991 -35.5245 
0 0 0 0 0 -0 -0.240764 94.588 -377.84 91.2904 -2.44469 -11.1121 15.7357 5.1072e-06 -5.51765e-07 155.473 84.5826 -156.984 8.98455 -0.406207 -4.3199e-07 -3.15638 9.9965 -2.75331 16.3773 -1.3905e-06 -6.99897e-07 -12.5417 -3.20235 -4.53122 6.45672 -1.25837e-06 -1.02172e-07 -9.47913 -15.0065 -5.96439 12.9942 -0.242716 4.98039 -86.8396 -8.8246 -85.2053 5.34809 -7.22636e-06 -6.2814e-07 -55.1264 -16.0074 43.2417 24.3286 1.87007e-05 4.90208e-06 22.0027 -3.6527 -98.9596 22.2916 -9.88446e-07 4.63217e-06 38.859 4.90021 9.3718 12.9945 -0.242716 -4.98039 90.5223 -5.49409 -99.5601 -5.34813 -1.25947e-06 -3.79883e-06 -73.3478 -5.71291 -14.6586 -24.3289 0.000322201 -8.65921e-06 9.21576 -5.60466 -121.041 -22.2915 -0.000108084 -4.47941e-06 38.5202 5.54873 -8.64994 -2.19248 -6.46944 -1.22533e-07 174.669 -0.77839 -31.6786 39.0811 -6.73843e-06 -1.23785e-05 -0.0768185 0.120988 29.4555 40.9854 -6.48686e-06 -1.26872e-05 6.87754 -6.62552 -50.7008 11.7543 -2.30145e-07 3.05095e-06 0.47578 -0.58105 -22.0506 -2.19251 6.46944 -1.45247e-06 -178.998 4.2652 -179.523 -39.0811 -0.00228153 -0.0401928 -0.00253512 0.0508527 9.05562 -40.9854 7.72618e-06 5.99936e-06 10.0735 0.128345 -43.1987 -11.7543 -5.6619e-06 -5.58687e-06 1.30779 -3.43471 -38.2381 
0 0 0 0 0 -0 -0.120722 93.9884 -373.287 90.2522 -3.82248 -11.0997 15.7357 5.1072e-06 -5.51764e-07 157.916 84.04 -159.189 8.98455 -0.406207 -4.3199e-07 -3.18668 11.162 -2.2421 16.3773 -1.3905e-06 -6.99897e-07 -12.1413 -2.96932 -4.29612 6.45672 -1.25837e-06 -1.02172e-07 -8.36534 -15.4207 -5.20838 12.9942 -0.242716 4.98039 -86.4577 -9.76816 -84.9546 5.34809 -7.22636e-06 -6.2814e-07 -54.9728 -17.4173 44.0563 24.3286 1.87007e-05 4.90208e-06 21.4449 -4.02385 -100.129 22.2916 -9.88446e-07 4.63217e-06 41.0947 4.89103 9.54759 12.9945 -0.242716 -4.98039 90.426 -5.57771 -100.626 -5.34813 -1.25947e-06 -3.79883e-06 -75.033 -6.95778 -14.9712 -24.3289 0.000322201 -8.65921e-06 10.4311 -6.74837 -122.549 -22.2915 -0.000108084 -4.47941e-06 39.0232 5.56896 -9.61776 -2.19248 -6.46944 -1.22533e-07 175.141 -4.29617 -28.025 39.0811 -6.73843e-06 -1.23785e-05 -0.0237014 0.0692302 13.1676 40.9854 -6.48686e-06 -1.26872e-05 4.19584 -1.32996 -53.4978 11.7543 -2.30145e-07 3.05095e-06 0.464401 -0.565768 -21.9119 -2.19251 6.46944 -1.45247e-06 -178.525 3.85687 -177.921 -39.0811 -0.00228153 -0.0401928 -0.00708685 0.0776619 10.5637 -40.9854 7.72618e-06 5.99936e-06 11.3685 0.847581 -40.9613 -11.7543 -5.6619e-06 -5.58687e-06 2.39394 -3.98014 -42.5866 
0 0 0 0 0 -0 0.187537 92.7297 -368.278 90.028 -4.84619 -10.904 15.7357 5.1072e-06 -5.51764e-07 157.397 83.7999 -158.661 8.98455 -0.406207 -4.3199e-07 -2.89698 11.5607 -2.24113 16.3773 -1.3905e-06 -6.99897e-07 -12.5708 -2.63041 -3.85914 6.45672 -1.25837e-06 -1.02172e-07 -7.32224 -15.1652 -4.3814 12.9942 -0.242716 4.98039 -86.7568 -9.14869 -85.3856 5.34809 -7.22636e-06 -6.2814e-07 -56.2474 -16.7621 44.7165 24.3286 1.87007e-05 4.90208e-06 20.7558 -4.52911 -101.77 22.2916 -9.88446e-07 4.63217e-06 44.8708 4.86892 9.98968 12.9945 -0.242716 -4.98039 90.2798 -4.41361 -101.37 -5.34813 -1.25947e-06 -3.79883e-06 -76.1505 -5.62282 -13.0916 -24.3289 0.000322201 -8.65921e-06 10.4795 -6.72376 -122.333 -22.2915 -0.000108084 -4.47941e-06 41.766 5.59503 -11.0408 -2.19248 -6.46944 -1.22533e-07 176.095 -3.64375 -27.5665 39.0811 -6.73843e-06 -1.23785e-05 -0.00408028 0.012802 6.82925 40.9854 -6.48686e-06 -1.26872e-05 2.54936 -1.9957 -57.9814 11.7543 -2.30145e-07 3.05095e-06 0.462294 -0.562928 -21.8861 -2.19251 6.46944 -1.45247e-06 -178.925 2.31612 -177.474 -39.0811 -0.00228153 -0.0401928 -0.00826836 0.0671135 15.4588 -40.9854 7.72618e-06 5.99936e-06 11.7544 0.161829 -40.2719 -11.7543 -5.6619e-06 -5.58687e-06 2.72682 -5.28388 -50.0563 
0 0 0 0 0 -0 0.842818 91.3991 -362.896 91.483 -4.11967 -11.1239 15.7357 5.1072e-06 -5.51764e-07 153.203 84.4113 -154.855 8.98455 -0.406207 -4.3199e-07 -2.59527 10.123 -3.08144 16.3773 -1.3905e-06 -6.99897e-07 -14.3725 -2.25753 -3.33623 6.45672 -1.25837e-06 -1.02172e-07 -6.21929 -13.9677 -3.6306 12.9942 -0.242716 4.98039 -87.8129 -6.46226 -86.2606 5.34809 -7.22636e-06 -6.2814e-07 -58.3814 -14.3481 44.7575 24.3286 1.87007e-05 4.90208e-06 19.4766 -4.6518 -102.916 22.2916 -9.88446e-07 4.63217e-06 46.3271 4.9289 8.79102 12.9945 -0.242716 -4.98039 90.1143 -1.62488 -100.969 -5.34813 -1.25947e-06 -3.79883e-06 -76.213 -2.20072 -9.40816 -24.3289 0.000322201 -8.65921e-06 10.999 -6.28841 -119.401 -22.2915 -0.000108084 -4.47941e-06 43.2994 5.61904 -12.5683 -2.19248 -6.46944 -1.22533e-07 175.45 0.115091 -31.4409 39.0811 -6.73843e-06 -1.23785e-05 0.0174621 -0.0847802 12.3422 40.9854 -6.48686e-06 -1.26872e-05 4.20795 -5.061 -56.1891 11.7543 -2.30145e-07 3.05095e-06 0.486827 -0.595979 -22.1858 -2.19251 6.46944 -1.45247e-06 179.353 1.9788 -177.834 -39.0811 -0.00228153 -0.0401928 -0.035859 0.123868 20.8625 -40.9854 7.72618e-06 5.99936e-06 11.925 -1.16309 -37.8573 -11.7543 -5.6619e-06 -5.58687e-06 2.90066 -7.01352 -59.7291 
